<?xml version="1.0" standalone="no"?>
<!DOCTYPE svg PUBLIC "-//W3C//DTD SVG 20010904//EN"
 "http://www.w3.org/TR/2001/REC-SVG-20010904/DTD/svg10.dtd">
<svg version="1.0" xmlns="http://www.w3.org/2000/svg"
 width="260.000000pt" height="260.000000pt" viewBox="0 0 260.000000 260.000000"
 preserveAspectRatio="xMidYMid meet">
<metadata>
Created by potrace 1.14, written by Peter Selinger 2001-2017
</metadata>
<g transform="translate(0.000000,260.000000) scale(0.100000,-0.100000)"
fill="#000000" stroke="none">
<path d="M1100 2256 c-317 -59 -561 -242 -690 -518 -78 -167 -113 -381 -91
-560 29 -229 89 -384 202 -520 142 -171 281 -259 504 -319 79 -21 112 -24 265
-24 114 0 194 5 230 14 219 54 341 119 476 255 133 134 191 242 244 451 33
130 33 380 1 509 -65 251 -187 431 -386 563 -68 46 -214 115 -265 126 -147 31
-198 37 -305 36 -66 -1 -149 -7 -185 -13z m-62 -622 c-34 -18 -48 -43 -48 -84
0 -43 47 -90 90 -90 22 0 41 9 61 29 39 39 40 91 3 128 l-26 26 42 -7 c76 -12
107 -30 114 -68 10 -52 -3 -93 -41 -138 -45 -53 -86 -73 -148 -73 -76 -1 -142
38 -175 103 -26 52 -32 94 -20 138 12 46 19 49 115 50 58 1 59 1 33 -14z m649
-11 c21 -28 16 -114 -10 -164 -69 -130 -253 -138 -339 -14 -32 47 -39 132 -13
159 16 16 123 42 132 32 4 -3 1 -6 -5 -6 -15 0 -42 -53 -42 -84 0 -36 39 -76
81 -82 28 -5 41 -1 67 21 26 22 32 34 32 67 0 32 -6 46 -32 71 l-33 30 75 -6
c54 -5 78 -11 87 -24z"/>
</g>
</svg>
